<?xml version="1.0" encoding="UTF-8"?>
<svg id="Layer_2" data-name="Layer 2" xmlns="http://www.w3.org/2000/svg" viewBox="0 0 438.58 52.78">
  <defs>
    <style>
      .cls-1 {
        fill: #fafafa;
      }
    </style>
  </defs>
  <g id="text">
    <g>
      <path class="cls-1" d="M4.75,51.55c-1.58,0-2.77-.52-3.56-1.55-.79-1.03-1.19-2.17-1.19-3.42V6.26C0,2.86,1.51,1.15,4.54,1.15h23.76c2.4,0,4.68.3,6.84.9,2.16.6,4.24,1.52,6.23,2.77,1.99,1.25,3.58,3.05,4.75,5.4,1.17,2.35,1.76,5.09,1.76,8.21,0,2.93-.44,5.53-1.33,7.81-.89,2.28-2.02,4.09-3.38,5.44-1.37,1.34-2.98,2.44-4.82,3.28-1.85.84-3.62,1.4-5.33,1.69-1.7.29-3.44.43-5.22.43h-.43c-1.44,0-2.16-1.08-2.16-3.24V5.9c0-1.25-.48-1.87-1.44-1.87s-1.44.46-1.44,1.37v41.26c0,3.26-1.56,4.9-4.68,4.9H4.75Z"/>
      <path class="cls-1" d="M105.26,47.74c.38.91.42,1.78.11,2.59-.31.82-1,1.22-2.05,1.22h-19.94c-2.11,0-3.38-.84-3.82-2.52l-4.25-17.14h-2.95l.36,1.58c.77,3.5.98,6.48.65,8.93-.34,2.45-1.18,4.44-2.52,5.98-1.34,1.54-2.83,2.64-4.46,3.31-1.63.67-3.38,1.01-5.26,1.01-3.02,0-5.68-.9-7.96-2.7-2.28-1.8-3.72-4.2-4.32-7.2-.6-3,.06-6.44,1.98-10.33l14.76-28.22c1.06-2.06,2.59-3.1,4.61-3.1h15.34c2.16,0,3.55.91,4.18,2.74l15.55,43.85ZM71.64,29.09h3.02l-4.82-19.37c-.19-.82-.55-1.33-1.08-1.55-.53-.22-.98-.08-1.37.4-.38.48-.48,1.1-.29,1.87l4.54,18.65Z"/>
      <path class="cls-1" d="M119.52,52.7c-3.41,0-6.29-1.21-8.64-3.64-2.35-2.42-3.53-5.41-3.53-8.96V4.61c0-2.93,1.08-4.39,3.24-4.39.86,0,1.62.19,2.27.58.65.38,1.64,1.08,2.99,2.09,5.28,3.94,11.57,11.62,18.86,23.04,3.41,5.28,6.78,9.84,10.12,13.68,3.34,3.84,5.96,6.53,7.88,8.06.53.43,1.03.53,1.51.29.48-.24.74-.62.79-1.15.05-.53-.14-1.03-.58-1.51-6-5.33-10.69-10.97-14.08-16.92-3.38-5.95-5.08-11.23-5.08-15.84,0-3.55,1.18-6.53,3.53-8.93,2.35-2.4,5.16-3.6,8.42-3.6s6.29,1.21,8.64,3.64c2.35,2.42,3.53,5.41,3.53,8.96v35.5c0,2.93-1.08,4.39-3.24,4.39-.86,0-1.64-.19-2.34-.58-.7-.38-1.67-1.08-2.92-2.09-5.09-3.98-11.28-11.5-18.58-22.54-6.72-10.27-12.82-17.69-18.29-22.25-.53-.43-1.03-.53-1.51-.29-.48.24-.74.62-.79,1.15-.05.53.14,1.03.58,1.51,6,5.33,10.69,10.97,14.08,16.92,3.38,5.95,5.08,11.23,5.08,15.84,0,3.55-1.18,6.53-3.53,8.93-2.35,2.4-5.16,3.6-8.42,3.6Z"/>
      <path class="cls-1" d="M188.21,52.78c-8.69,0-15.3-2.12-19.84-6.37s-6.8-10.96-6.8-20.12,2.27-15.72,6.8-19.94c4.54-4.22,11.15-6.34,19.84-6.34,17.76,0,26.64,8.76,26.64,26.28s-8.88,26.5-26.64,26.5ZM186.77,48.1c0,.67.24,1.14.72,1.4.48.26.96.26,1.44,0,.48-.26.72-.73.72-1.4V4.39c0-.62-.24-1.06-.72-1.3-.48-.24-.96-.24-1.44,0-.48.24-.72.67-.72,1.3v43.7Z"/>
      <path class="cls-1" d="M255.16,52.7c-3.94,0-7.09-1.4-9.47-4.21s-3.56-6.25-3.56-10.33V5.9c0-1.25-.48-1.87-1.44-1.87s-1.44.46-1.44,1.37v41.26c0,3.26-1.56,4.9-4.68,4.9h-12.89c-1.58,0-2.77-.52-3.56-1.55-.79-1.03-1.19-2.17-1.19-3.42V6.26c0-3.41,1.51-5.11,4.54-5.11h21.6c3.7,0,7.12.4,10.26,1.19,3.14.79,5.84,2.23,8.1,4.32,2.25,2.09,3.38,4.67,3.38,7.74,0,7.01-3.53,10.51-10.58,10.51h-4.9c-.58,0-.98.24-1.22.72-.24.48-.24.96,0,1.44.24.48.65.72,1.22.72h4.9c3.65,0,6.72,1.22,9.22,3.67,2.5,2.45,3.74,5.35,3.74,8.71s-1.14,6.41-3.42,8.86c-2.28,2.45-5.15,3.67-8.6,3.67Z"/>
      <path class="cls-1" d="M324.57,47.74c.38.91.42,1.78.11,2.59-.31.82-1,1.22-2.05,1.22h-19.94c-2.11,0-3.38-.84-3.82-2.52l-4.25-17.14h-2.95l.36,1.58c.77,3.5.98,6.48.65,8.93-.34,2.45-1.18,4.44-2.52,5.98-1.34,1.54-2.83,2.64-4.46,3.31-1.63.67-3.38,1.01-5.26,1.01-3.02,0-5.68-.9-7.96-2.7-2.28-1.8-3.72-4.2-4.32-7.2-.6-3,.06-6.44,1.98-10.33l14.76-28.22c1.05-2.06,2.59-3.1,4.61-3.1h15.34c2.16,0,3.55.91,4.18,2.74l15.55,43.85ZM290.95,29.09h3.02l-4.82-19.37c-.19-.82-.55-1.33-1.08-1.55-.53-.22-.98-.08-1.37.4-.38.48-.48,1.1-.29,1.87l4.54,18.65Z"/>
      <path class="cls-1" d="M339.12,52.7c-3.46,0-6.4-1.2-8.82-3.6-2.42-2.4-3.64-5.35-3.64-8.86V4.54c0-2.06.67-3.41,2.02-4.03,1.34-.62,3.26-.1,5.76,1.58,9.12,7.06,15.38,14.98,18.79,23.76,3.41-8.78,9.67-16.7,18.79-23.76,2.54-1.73,4.48-2.27,5.8-1.62,1.32.65,1.98,2,1.98,4.07v35.71c0,3.5-1.21,6.46-3.64,8.86-2.42,2.4-5.36,3.6-8.82,3.6s-6.38-1.2-8.78-3.6c-2.4-2.4-3.6-5.35-3.6-8.86,0-4.61,1.74-9.9,5.22-15.88,3.48-5.98,8.29-11.63,14.44-16.96.86-.77,1.03-1.54.5-2.3-.53-.72-1.2-.79-2.02-.22-.05.05-.1.1-.14.14-5.28,4.51-9.26,8.7-11.95,12.56-2.69,3.86-4.99,8.29-6.91,13.28-.1.48-.38.72-.86.72s-.79-.24-.94-.72c-1.87-4.99-4.15-9.42-6.84-13.28-2.69-3.86-6.7-8.08-12.02-12.64-.82-.67-1.49-.61-2.02.18s-.38,1.55.43,2.27c6.14,5.33,10.96,10.98,14.44,16.96,3.48,5.98,5.22,11.27,5.22,15.88,0,3.46-1.21,6.4-3.64,8.82-2.42,2.42-5.34,3.64-8.75,3.64Z"/>
      <path class="cls-1" d="M438.26,47.74c.38.91.42,1.78.11,2.59-.31.82-1,1.22-2.05,1.22h-19.94c-2.11,0-3.38-.84-3.82-2.52l-4.25-17.14h-2.95l.36,1.58c.77,3.5.98,6.48.65,8.93-.34,2.45-1.18,4.44-2.52,5.98-1.34,1.54-2.83,2.64-4.46,3.31-1.63.67-3.38,1.01-5.26,1.01-3.02,0-5.68-.9-7.96-2.7-2.28-1.8-3.72-4.2-4.32-7.2-.6-3,.06-6.44,1.98-10.33l14.76-28.22c1.05-2.06,2.59-3.1,4.61-3.1h15.34c2.16,0,3.55.91,4.18,2.74l15.55,43.85ZM404.64,29.09h3.02l-4.82-19.37c-.19-.82-.55-1.33-1.08-1.55-.53-.22-.98-.08-1.37.4-.38.48-.48,1.1-.29,1.87l4.54,18.65Z"/>
    </g>
  </g>
</svg>